<?xml version="1.0" standalone="no"?>
<!DOCTYPE svg PUBLIC "-//W3C//DTD SVG 20010904//EN"
 "http://www.w3.org/TR/2001/REC-SVG-20010904/DTD/svg10.dtd">
<svg version="1.0" xmlns="http://www.w3.org/2000/svg"
 width="512.000000pt" height="512.000000pt" viewBox="0 0 512.000000 512.000000"
 preserveAspectRatio="xMidYMid meet">
<metadata>
Created by potrace 1.11, written by Peter Selinger 2001-2013
</metadata>
<g transform="translate(0.000000,512.000000) scale(0.100000,-0.100000)"
fill="#000000" stroke="none">
<path d="M1987 4928 c-9 -13 -16 -17 -14 -9 1 7 -4 16 -11 18 -7 3 -12 1 -11
-4 3 -20 -2 -27 -11 -13 -6 10 -10 11 -10 3 0 -8 -13 -13 -30 -13 -16 0 -30
-3 -30 -8 0 -4 -9 -13 -21 -20 -12 -8 -18 -9 -15 -3 4 5 2 12 -4 16 -5 3 -10
1 -10 -6 0 -8 -5 -7 -17 2 -9 8 -14 9 -10 3 4 -7 -1 -18 -10 -25 -12 -10 -14
-10 -9 -1 10 17 -16 15 -40 -4 -10 -8 -13 -12 -5 -8 10 5 12 3 7 -5 -6 -9 -12
-8 -26 4 -14 12 -20 13 -26 4 -4 -8 -3 -10 4 -5 24 15 10 -10 -16 -29 -15 -10
-22 -13 -15 -4 10 12 8 15 -7 15 -10 0 -17 -3 -15 -6 2 -3 -10 -13 -26 -23
-18 -10 -27 -12 -23 -4 5 9 4 9 -7 0 -7 -7 -21 -13 -30 -13 -10 0 -21 -4 -24
-10 -4 -6 1 -7 12 -4 15 5 15 4 3 -4 -10 -8 -18 -8 -27 0 -10 8 -13 6 -13 -7
0 -14 -3 -15 -13 -6 -11 8 -18 7 -30 -7 -8 -9 -15 -20 -14 -24 1 -3 -2 -10 -7
-15 -5 -4 -6 -3 -3 3 4 7 -2 14 -13 17 -11 3 -19 2 -18 -2 3 -23 -5 -32 -24
-29 -16 2 -26 -4 -33 -20 -7 -15 -16 -21 -28 -18 -16 4 -16 2 -5 -12 7 -9 8
-14 4 -10 -5 4 -16 2 -24 -5 -13 -10 -15 -9 -8 3 4 9 2 8 -7 -2 -8 -10 -18
-14 -22 -10 -5 4 -5 -1 -2 -10 3 -10 3 -17 -1 -16 -4 0 -21 -5 -39 -11 -21 -8
-30 -17 -26 -27 3 -8 -1 -15 -11 -15 -30 -3 -34 -4 -43 -13 -5 -5 -2 -6 6 -1
9 5 12 3 9 -6 -3 -8 -12 -13 -21 -11 -11 2 -15 -3 -12 -18 3 -17 1 -19 -15
-10 -16 9 -18 7 -15 -12 4 -23 4 -23 -12 -3 -9 12 -13 14 -11 5 3 -8 -7 -25
-21 -38 -21 -18 -22 -21 -6 -16 18 6 18 5 4 -7 -9 -8 -22 -23 -29 -34 -9 -16
-10 -16 -6 -2 3 11 2 15 -4 12 -6 -3 -10 -16 -10 -28 0 -18 -2 -19 -10 -7 -8
13 -10 12 -11 -5 -1 -11 -1 -23 0 -27 0 -4 -7 -4 -16 -1 -11 4 -14 3 -9 -6 5
-8 0 -20 -12 -31 -15 -14 -22 -16 -25 -7 -3 7 -4 -4 -2 -24 2 -31 -1 -36 -16
-32 -11 3 -19 0 -19 -6 0 -7 6 -9 13 -5 9 6 9 4 0 -7 -16 -16 -17 -33 -1 -23
7 4 8 3 4 -5 -6 -9 -12 -9 -24 1 -10 7 -14 9 -10 4 4 -5 2 -18 -4 -30 -7 -11
-13 -25 -13 -31 -2 -20 -17 -45 -24 -40 -4 2 -8 -2 -8 -10 0 -8 4 -12 9 -9 4
3 8 0 8 -5 0 -6 -8 -11 -17 -11 -16 -1 -16 -2 1 -15 11 -8 15 -15 9 -15 -17 0
-43 -73 -29 -82 7 -5 5 -8 -5 -8 -9 0 -20 -7 -23 -16 -3 -9 -11 -12 -18 -8
-10 6 -11 5 -1 -8 7 -8 9 -19 5 -23 -4 -5 -1 -5 7 0 10 6 12 4 7 -4 -5 -7 -15
-10 -25 -7 -12 5 -11 2 3 -9 18 -14 15 -20 -8 -16 -5 1 -4 -5 4 -13 10 -14 10
-16 -5 -16 -14 0 -15 -3 -6 -14 9 -11 8 -18 -6 -31 -21 -21 -25 -45 -12 -61 7
-8 6 -15 -2 -20 -8 -4 -9 -3 -5 4 4 7 2 12 -3 12 -15 0 -14 -23 2 -39 10 -11
8 -11 -13 -1 -25 13 -25 13 -7 -8 14 -15 15 -21 5 -25 -10 -4 -10 -6 0 -6 9
-1 10 -6 4 -18 -10 -20 -10 -59 1 -69 4 -4 1 -14 -6 -22 -10 -13 -9 -15 6 -9
10 4 16 3 12 -2 -3 -5 -1 -12 5 -16 7 -4 7 -12 0 -25 -14 -26 -13 -33 5 -27 8
4 17 1 21 -5 4 -6 3 -8 -4 -4 -6 3 -13 2 -17 -4 -3 -5 2 -10 12 -10 15 0 16
-2 3 -10 -8 -5 -10 -10 -4 -10 7 0 15 -7 18 -16 3 -8 2 -12 -4 -9 -6 3 -10 1
-10 -4 0 -6 7 -11 16 -11 10 0 14 -6 11 -14 -4 -10 -1 -13 7 -10 8 3 17 0 22
-7 4 -7 3 -10 -4 -5 -6 3 -14 1 -18 -5 -4 -7 -3 -9 3 -6 6 4 16 0 23 -8 7 -8
19 -15 27 -15 8 0 12 -4 9 -9 -8 -12 26 -24 33 -13 7 10 40 12 39 3 0 -3 0
-15 2 -26 l1 -20 9 20 c8 18 9 19 9 1 1 -11 6 -16 14 -13 8 3 14 -1 14 -9 0
-7 -4 -11 -9 -8 -4 3 -8 0 -8 -5 0 -6 7 -11 15 -11 9 0 12 -6 8 -17 -4 -10 -2
-14 5 -9 7 4 10 -1 7 -14 -4 -18 11 -25 46 -22 3 1 6 -6 6 -13 0 -11 -4 -12
-14 -3 -11 8 -12 7 -7 -6 3 -9 15 -16 26 -16 12 0 18 -5 15 -13 -3 -7 3 -13
13 -13 11 0 16 6 13 16 -2 8 2 4 10 -9 11 -18 16 -20 20 -10 3 8 6 4 7 -11 1
-23 2 -23 10 -5 7 15 9 16 9 4 1 -9 9 -23 19 -30 16 -13 16 -13 2 6 -14 19
-14 19 3 6 21 -17 22 -16 -5 -42 l-23 -21 25 6 25 7 -24 -14 c-18 -11 -20 -16
-10 -20 11 -4 11 -6 1 -6 -7 -1 -10 -5 -7 -11 3 -5 0 -10 -7 -10 -8 -1 -6 -6
6 -15 18 -14 18 -15 2 -15 -13 0 -16 -5 -11 -20 4 -12 1 -28 -7 -37 -10 -13
-10 -17 0 -20 6 -3 12 -9 12 -14 0 -4 -7 -6 -16 -2 -14 5 -15 3 -6 -12 8 -15
6 -22 -6 -33 -10 -7 -12 -11 -7 -8 6 2 16 -4 23 -14 9 -14 8 -19 -3 -24 -10
-3 -12 0 -8 12 3 9 3 14 -1 11 -10 -9 -16 -50 -7 -44 5 3 12 -2 15 -11 3 -8 2
-12 -3 -9 -5 3 -13 1 -16 -5 -4 -6 -3 -10 2 -9 4 1 15 1 23 0 13 -1 13 -2 0
-11 -12 -7 -12 -12 -2 -22 6 -6 12 -22 12 -35 0 -13 5 -22 13 -21 6 2 11 -3 9
-9 -1 -7 3 -13 10 -13 6 0 9 -3 6 -6 -4 -3 -17 0 -30 6 l-23 12 23 -21 c12
-13 19 -27 15 -34 -4 -7 1 -6 10 2 10 8 20 11 24 7 3 -3 1 -6 -5 -6 -17 0 -10
-23 11 -39 13 -9 16 -16 8 -24 -7 -7 -6 -14 5 -22 9 -6 17 -23 17 -38 1 -15 6
-27 11 -27 4 0 5 -7 2 -16 -3 -8 -2 -12 4 -9 6 3 10 -1 10 -9 0 -9 -5 -16 -12
-16 -6 0 -8 -3 -5 -6 4 -4 14 -1 24 7 9 8 14 9 10 2 -4 -6 -3 -14 1 -17 5 -3
8 -17 6 -32 -1 -17 2 -24 10 -21 9 4 11 -2 8 -19 -3 -17 0 -24 12 -24 13 0 15
-6 10 -27 -6 -21 -4 -25 8 -21 11 5 14 0 10 -19 -4 -20 -2 -24 9 -18 12 7 12
6 1 -7 -10 -13 -9 -18 5 -29 9 -8 14 -9 10 -2 -4 6 -2 15 5 19 7 4 10 4 6 -1
-4 -4 -3 -16 3 -26 8 -15 6 -17 -7 -12 -14 5 -14 3 -3 -16 8 -11 21 -21 29
-21 13 0 13 -1 0 -10 -13 -8 -12 -10 3 -10 9 0 17 -5 17 -11 0 -5 -5 -7 -12
-3 -7 4 -8 3 -4 -4 4 -7 15 -12 24 -12 14 0 14 -2 3 -9 -11 -7 -9 -10 8 -16
12 -3 19 -11 16 -16 -4 -5 -1 -9 5 -9 6 0 8 -5 4 -12 -5 -8 -2 -9 10 -5 14 5
17 3 12 -8 -7 -18 20 -21 28 -2 4 8 5 7 5 -3 -3 -36 2 -50 17 -50 20 0 45 -25
36 -36 -4 -5 -1 -4 7 3 11 9 17 9 27 -2 8 -7 14 -19 14 -25 0 -6 4 -9 9 -6 5
4 11 2 13 -4 1 -5 15 -11 29 -12 14 -1 26 -8 26 -15 0 -10 -4 -10 -14 -1 -7 6
-15 9 -18 6 -2 -2 10 -12 27 -22 21 -13 28 -15 23 -5 -5 8 1 6 13 -5 12 -10
19 -23 16 -27 -3 -5 2 -9 11 -9 11 0 15 -5 11 -16 -3 -8 -2 -12 4 -9 6 3 10 1
10 -6 0 -7 3 -10 6 -6 3 3 21 -8 40 -25 28 -26 32 -34 22 -46 -11 -13 -9 -14
12 -8 21 6 23 5 10 -6 -9 -7 -15 -23 -14 -36 1 -14 -3 -21 -11 -19 -6 3 -12
-1 -12 -9 0 -7 3 -11 7 -9 4 2 6 -6 5 -17 -1 -12 -8 -24 -16 -26 -12 -3 -12
-2 0 6 9 7 10 12 2 16 -6 4 -11 2 -11 -3 0 -19 -2 -26 -11 -44 -7 -11 -6 -17
1 -17 6 0 8 -5 5 -10 -4 -6 -10 -8 -15 -5 -5 3 -12 0 -16 -6 -4 -8 -3 -9 4 -5
7 4 12 2 12 -4 0 -6 6 -8 13 -5 6 4 3 -1 -7 -9 -14 -11 -15 -16 -6 -16 9 0 7
-5 -6 -15 -18 -14 -18 -14 6 -10 21 4 23 2 10 -8 -9 -7 -15 -22 -14 -35 1 -12
-3 -22 -7 -22 -5 0 -8 -3 -8 -7 4 -25 -2 -53 -11 -48 -6 3 -7 -1 -4 -9 3 -9
10 -13 15 -10 15 9 10 -3 -8 -17 -9 -8 -14 -9 -10 -3 3 6 -1 11 -10 11 -12 0
-11 -5 7 -19 12 -10 18 -18 12 -18 -5 0 -12 -9 -15 -21 -3 -12 -10 -18 -16
-14 -14 8 -14 -8 -2 -20 6 -6 -3 -10 -25 -11 -19 0 -34 3 -34 8 0 5 -5 6 -10
3 -6 -4 -7 -11 -4 -17 4 -6 -3 -5 -16 2 -12 7 -20 8 -16 2 3 -5 -1 -13 -10
-16 -8 -3 -13 -2 -10 2 2 4 -8 8 -23 7 -18 0 -28 -5 -27 -14 1 -8 -5 -16 -11
-18 -7 -3 -13 0 -13 7 0 6 5 8 12 4 7 -5 8 -3 3 6 -6 10 -11 9 -22 -5 -9 -14
-13 -15 -13 -4 0 12 -2 12 -9 0 -5 -8 -18 -12 -30 -8 -12 3 -19 2 -16 -3 3 -4
-2 -13 -9 -19 -11 -9 -16 -9 -22 0 -5 8 -3 9 6 4 9 -6 11 -4 5 5 -6 10 -10 10
-20 -3 -9 -13 -14 -14 -24 -4 -10 9 -11 8 -5 -8 7 -18 6 -19 -11 -5 -15 12
-17 12 -10 1 6 -11 4 -13 -8 -8 -11 4 -17 1 -17 -9 0 -8 -5 -12 -10 -9 -6 4
-8 12 -4 18 3 7 -4 1 -16 -13 -12 -14 -19 -20 -16 -13 4 6 2 14 -4 18 -5 3
-10 1 -10 -5 0 -6 -4 -9 -9 -5 -5 3 -13 0 -17 -6 -4 -8 -3 -9 4 -5 7 4 12 2
12 -4 0 -6 -11 -8 -25 -6 -14 3 -25 1 -25 -4 0 -17 -30 -18 -47 -2 -16 16 -16
16 -10 -2 5 -14 4 -17 -8 -12 -8 3 -15 1 -15 -4 0 -6 -5 -10 -11 -10 -5 0 -7
6 -3 12 6 10 5 10 -8 1 -8 -7 -19 -9 -23 -5 -5 4 -5 -1 -2 -11 4 -10 3 -16 -2
-12 -5 3 -12 1 -16 -5 -4 -7 -13 -6 -27 1 -16 9 -19 8 -13 -2 6 -9 2 -11 -13
-7 -13 4 -20 2 -19 -6 1 -6 -11 -11 -30 -10 -17 0 -31 -2 -30 -5 1 -4 -7 -16
-18 -28 -14 -17 -22 -20 -32 -11 -11 9 -12 7 -7 -8 6 -15 4 -17 -6 -7 -18 17
-51 -2 -44 -25 5 -15 4 -15 -6 1 -11 17 -12 17 -24 1 -9 -11 -19 -15 -31 -10
-15 5 -16 4 -5 -9 11 -13 10 -14 -4 -9 -9 3 -16 10 -16 16 0 5 -5 6 -11 3 -6
-4 -8 -13 -5 -21 7 -19 1 -18 -20 3 -17 17 -18 17 -11 1 5 -14 1 -18 -17 -18
-13 0 -34 -9 -47 -21 -13 -11 -18 -17 -10 -13 10 5 12 3 7 -5 -6 -9 -11 -9
-22 0 -12 10 -13 9 -9 -4 4 -8 1 -18 -6 -23 -8 -4 -10 -3 -5 4 4 7 1 12 -9 12
-12 0 -14 -4 -6 -19 9 -16 8 -18 -9 -14 -16 4 -19 2 -14 -11 5 -13 2 -15 -12
-9 -17 6 -17 5 -5 -10 14 -18 13 -19 -21 -21 -12 0 -23 -8 -25 -16 -4 -12 -3
-12 5 -2 7 11 10 11 15 -3 4 -10 3 -14 -4 -10 -6 4 -13 -3 -16 -15 -4 -16 -8
-18 -14 -8 -6 9 -9 7 -9 -8 0 -12 -10 -26 -22 -33 -13 -6 -15 -9 -6 -7 10 3
20 0 24 -6 4 -7 3 -8 -4 -4 -7 4 -12 2 -12 -4 0 -6 -5 -8 -10 -5 -6 3 -10 -1
-10 -9 0 -26 -1 -30 -12 -43 -6 -7 -14 -11 -18 -8 -5 3 -12 0 -16 -6 -4 -7 -3
-9 4 -5 6 3 13 2 16 -3 3 -5 -4 -11 -16 -14 -19 -5 -20 -8 -7 -23 9 -12 10
-15 2 -10 -8 4 -13 2 -13 -4 0 -6 -4 -8 -10 -5 -5 3 -10 1 -10 -4 0 -6 5 -11
11 -11 5 0 7 -5 4 -10 -4 -6 -11 -7 -17 -4 -6 4 -5 -3 2 -16 11 -20 10 -21
-10 -10 -13 7 -20 8 -16 2 3 -6 2 -13 -3 -16 -5 -3 -7 -16 -4 -29 4 -18 3 -19
-6 -7 -9 12 -11 11 -11 -8 0 -13 -4 -20 -10 -17 -6 3 -7 -1 -4 -9 3 -9 11 -13
18 -10 6 3 -2 -5 -19 -20 -16 -14 -24 -25 -17 -26 6 0 12 5 12 12 0 6 2 9 5 6
12 -11 -7 -37 -23 -31 -14 5 -15 4 -4 -8 10 -11 8 -17 -10 -32 -13 -10 -17
-16 -11 -12 22 11 14 -6 -12 -27 -20 -16 -23 -23 -15 -39 11 -19 51 -19 2471
-19 l2459 0 0 535 c-1 418 -3 534 -13 528 -18 -11 -38 -13 -31 -2 3 5 10 6 16
3 6 -4 8 -2 4 4 -4 7 -17 8 -36 2 -22 -6 -34 -5 -44 6 -8 8 -20 14 -26 14 -6
0 -8 5 -4 12 4 7 3 8 -5 4 -9 -6 -9 -12 1 -24 11 -15 11 -15 -2 -5 -8 6 -19
12 -25 13 -5 1 -12 4 -15 7 -3 4 1 3 9 -2 9 -5 12 -4 7 3 -9 15 -12 15 -30 -4
-14 -14 -16 -14 -16 0 0 13 -5 14 -27 5 -15 -6 -24 -7 -20 -3 4 5 -3 14 -15
22 -19 11 -19 12 -3 7 17 -5 18 -4 7 7 -11 11 -16 9 -29 -7 -12 -16 -14 -16
-10 -3 7 20 -9 35 -16 16 -4 -10 -6 -9 -6 1 -1 11 -4 11 -18 0 -9 -8 -14 -9
-11 -4 3 6 -1 17 -10 25 -14 13 -15 12 -9 -3 3 -9 2 -19 -3 -22 -6 -4 -10 1
-10 9 0 9 -5 16 -11 16 -5 0 -8 -4 -5 -8 8 -14 -57 0 -72 14 -11 12 -11 14 0
14 8 0 9 3 3 8 -12 9 -18 30 -16 60 0 16 -3 21 -12 16 -9 -6 -9 -5 0 7 13 16
1 39 -21 39 -5 0 -1 -7 10 -16 18 -15 18 -15 -3 -4 -15 7 -20 16 -16 27 4 11
3 14 -5 9 -7 -4 -12 -2 -12 4 0 7 -7 9 -16 6 -10 -4 -13 -2 -8 6 5 8 2 9 -10
5 -12 -5 -19 0 -26 16 -5 13 -9 16 -10 7 -1 -10 -4 -9 -10 5 -6 14 -9 15 -10
5 0 -10 -6 -6 -16 10 -8 14 -13 17 -10 8 3 -12 1 -15 -9 -11 -8 3 -12 10 -8
17 4 6 -2 4 -12 -4 -10 -8 -16 -10 -12 -3 4 6 3 14 -3 18 -5 3 -10 0 -10 -7 0
-10 -3 -9 -9 2 -6 8 -7 18 -4 23 3 5 -4 4 -15 -2 -17 -9 -24 -7 -42 17 -12 15
-19 22 -16 16 7 -15 -29 -11 -49 6 -9 7 -13 20 -10 29 5 13 4 14 -6 3 -15 -14
-33 -16 -24 -2 9 14 -8 12 -24 -3 -11 -9 -13 -9 -7 0 7 12 -5 18 -27 14 -5 -1
-6 3 -3 8 3 5 -1 12 -10 15 -8 3 -12 2 -9 -3 3 -5 1 -13 -5 -16 -6 -4 -10 -3
-9 2 3 20 -2 34 -11 28 -5 -3 -10 1 -10 9 0 8 -8 17 -17 19 -15 4 -15 5 2 6
16 1 17 3 6 10 -13 8 -13 12 0 28 13 16 13 17 -4 4 -15 -12 -18 -10 -23 18 -4
17 -12 31 -18 31 -6 0 -4 5 4 10 12 8 11 10 -7 10 -13 0 -23 5 -23 11 0 5 -5
7 -10 4 -5 -3 -10 0 -10 8 0 8 -7 17 -14 20 -11 4 -13 1 -10 -11 3 -9 -1 -7
-8 6 -11 18 -16 20 -27 10 -11 -10 -12 -10 -7 -1 4 8 2 13 -6 13 -9 0 -9 3 2
10 13 8 13 10 -1 10 -18 0 -34 26 -30 49 2 8 -2 10 -11 5 -9 -5 -8 -2 2 11 9
11 10 16 3 11 -12 -7 -17 5 -16 40 0 6 -8 9 -18 7 -11 -3 -19 0 -19 6 0 7 4
10 9 6 5 -3 13 -1 16 5 4 6 1 9 -7 8 -7 -2 -12 5 -12 15 2 13 -1 15 -11 7 -9
-8 -14 -6 -19 5 -4 11 -2 14 7 9 6 -4 2 3 -10 15 -27 26 -31 39 -5 20 15 -13
16 -12 3 4 -7 9 -20 17 -27 17 -10 0 -13 7 -8 25 4 18 1 27 -10 31 -9 3 -13
10 -10 15 3 5 0 9 -6 9 -6 0 -9 4 -6 9 4 5 -5 8 -20 6 -18 -2 -22 1 -15 8 15
15 14 27 -3 21 -8 -3 -17 0 -22 7 -4 8 -3 10 4 5 8 -5 10 -2 6 8 -5 13 -10 13
-27 5 -18 -10 -20 -9 -9 2 6 7 12 18 12 24 0 5 -4 4 -8 -3 -6 -9 -13 -7 -30 8
-21 20 -37 27 -28 12 2 -4 -4 -8 -14 -8 -10 0 -16 4 -14 8 3 4 0 8 -6 8 -6 0
-9 4 -5 10 3 5 13 6 23 3 16 -6 16 -6 0 11 -21 20 -23 27 -7 24 6 -2 14 3 17
11 3 9 0 11 -9 6 -12 -7 -12 -5 -1 6 11 12 14 12 22 -1 8 -11 9 -9 7 10 -2 14
3 31 12 38 13 11 13 12 1 7 -9 -4 -8 -1 3 8 10 9 18 19 18 24 -2 17 72 83 93
83 11 0 17 4 11 8 -12 8 -16 44 -5 37 5 -3 11 1 14 7 3 7 3 2 0 -12 -4 -22 -4
-23 6 -7 7 10 9 24 7 32 -7 18 3 27 18 15 8 -7 11 -1 9 21 -2 26 0 28 14 17
13 -12 14 -10 3 9 -10 19 -9 22 4 17 8 -4 15 -2 15 4 0 6 -6 13 -12 15 -10 4
-10 6 0 6 8 1 10 6 6 14 -6 9 -5 9 7 0 13 -10 15 -8 13 18 -2 22 1 27 10 20 8
-7 12 -4 13 10 1 12 -3 17 -9 13 -7 -4 -8 -2 -4 5 4 6 17 9 29 6 12 -2 16 -2
10 1 -7 3 -13 12 -13 20 0 9 5 12 12 8 7 -4 8 -3 4 5 -4 7 2 20 16 31 13 11
17 19 11 20 -7 0 -13 -5 -13 -11 0 -5 -5 -7 -11 -4 -6 5 -2 13 11 22 17 12 19
17 9 24 -11 7 -10 9 4 9 14 0 17 5 11 22 -6 20 -5 21 10 9 14 -12 16 -12 11 2
-4 8 -1 18 5 22 8 5 6 13 -7 28 -17 21 -17 21 0 7 18 -13 19 -12 15 15 -2 22
1 30 13 29 11 -1 14 6 11 29 -3 20 -1 28 7 23 6 -4 11 -2 11 3 0 6 -4 11 -10
11 -5 0 -10 5 -10 11 0 6 6 9 14 6 10 -4 12 0 9 14 -3 10 -9 16 -14 13 -5 -3
-9 0 -9 5 0 6 6 11 14 11 9 0 12 8 8 26 -3 19 -1 25 7 20 6 -4 11 -2 11 3 0 6
-5 11 -10 11 -6 0 -5 6 2 14 7 8 15 13 18 11 3 -2 6 17 8 42 2 33 -1 43 -10
38 -7 -4 -5 0 4 8 14 11 15 16 5 26 -9 10 -8 11 6 6 10 -4 17 -2 17 4 0 6 -4
11 -8 11 -5 0 -9 7 -9 15 0 10 4 12 11 5 8 -6 11 -1 11 16 -1 14 -8 30 -16 35
-11 7 -11 9 0 9 7 0 11 6 7 15 -3 8 2 19 12 24 12 7 13 10 3 11 -11 0 -11 3
-1 15 15 18 0 20 -20 3 -8 -7 -4 0 10 16 14 16 20 26 14 23 -19 -11 -24 19 -7
44 9 12 12 19 6 16 -6 -4 -14 0 -17 9 -3 8 -2 12 4 9 15 -9 12 7 -4 31 -13 17
-13 21 -1 21 8 0 12 -4 9 -9 -3 -4 0 -8 5 -8 13 0 14 17 2 24 -5 3 -11 14 -14
25 -3 14 -1 18 9 14 23 -9 16 13 -8 26 l-23 12 24 -5 c18 -4 21 -2 12 7 -16
16 -15 81 2 71 8 -5 8 -2 -2 9 -11 14 -11 20 0 35 13 15 12 16 -3 3 -20 -15
-23 -9 -8 20 10 18 -3 29 -13 12 -2 -5 -3 -3 -1 3 1 6 -2 17 -6 24 -6 9 -2 19
8 27 16 12 16 13 0 7 -11 -4 -21 2 -28 16 -8 15 -8 20 -1 16 6 -4 11 0 11 9 0
8 -7 18 -16 22 -13 5 -13 7 -2 14 8 6 9 9 2 9 -7 0 -15 7 -18 16 -5 14 -4 15
9 4 13 -11 14 -10 9 4 -3 9 -10 16 -16 16 -5 0 -16 7 -24 15 -18 18 -4 20 16
3 8 -7 6 -3 -4 9 -11 13 -24 19 -34 15 -14 -5 -15 -3 -5 9 10 12 8 17 -7 27
-11 7 -17 18 -14 27 4 9 0 15 -9 15 -8 0 -17 9 -20 20 -3 11 -12 20 -21 20 -9
0 -16 5 -16 11 0 5 4 8 8 5 5 -3 9 1 9 9 0 11 -4 12 -14 4 -15 -13 -43 4 -43
27 0 7 -9 15 -20 19 -11 3 -19 9 -19 13 4 22 -3 33 -16 29 -8 -4 -17 -1 -21 5
-4 7 -3 8 4 4 7 -4 12 -3 12 2 0 5 -10 12 -21 15 -14 4 -20 11 -16 20 3 9 -1
14 -11 13 -10 0 -16 6 -16 16 1 11 -5 15 -18 13 -15 -3 -17 -1 -10 8 11 13
-10 41 -22 30 -6 -6 -10 13 -7 31 1 5 -6 3 -15 -5 -16 -12 -17 -12 -11 4 6 15
3 17 -13 12 -14 -4 -20 -2 -18 7 2 7 -2 12 -9 11 -6 -2 -15 6 -18 17 -4 11
-11 20 -18 20 -8 0 -8 -3 1 -12 7 -7 12 -17 12 -22 0 -6 -11 6 -25 25 -13 20
-32 39 -42 43 -16 5 -16 4 1 -9 11 -8 16 -15 12 -15 -4 0 -18 8 -31 19 -19 14
-21 21 -12 30 9 10 8 11 -5 6 -11 -4 -18 -2 -18 4 0 9 -6 9 -22 0 -21 -11 -22
-11 -9 5 12 14 12 16 -3 10 -9 -4 -16 -3 -15 2 3 20 -2 24 -20 14 -17 -9 -19
-7 -16 11 4 18 2 19 -13 8 -9 -7 -14 -9 -10 -5 10 12 -29 39 -42 31 -6 -3 -10
-1 -10 5 0 7 -6 10 -14 7 -8 -3 -22 1 -33 9 -10 9 -12 13 -3 9 8 -4 6 0 -4 9
-10 8 -24 13 -29 9 -6 -4 -8 0 -4 11 5 14 3 15 -13 6 -16 -8 -18 -8 -14 4 3 8
0 17 -7 22 -7 4 -10 3 -5 -4 9 -15 -34 -6 -48 9 -8 9 -8 10 1 5 9 -5 11 -2 7
9 -6 14 -8 14 -21 -2 -13 -16 -14 -16 -9 -1 4 12 1 15 -11 11 -9 -4 -19 1 -25
10 -5 10 -16 17 -24 17 -9 0 -12 -5 -8 -12 4 -7 3 -8 -5 -4 -6 4 -9 12 -6 17
4 5 -3 9 -14 9 -12 0 -21 5 -21 11 0 5 -5 7 -10 4 -6 -4 -7 -12 -3 -18 3 -7
-4 -3 -16 7 -22 20 -22 20 -16 0 6 -16 5 -17 -7 -4 -13 15 -52 24 -43 10 3 -4
-2 -10 -10 -14 -8 -3 -15 -1 -15 5 0 6 -9 8 -21 4 -16 -5 -19 -4 -14 6 6 9 4
11 -8 6 -12 -4 -14 -2 -10 11 6 14 4 15 -8 5 -11 -9 -18 -8 -33 3 -17 12 -21
11 -33 -4 -8 -9 -12 -12 -9 -5 10 19 -16 28 -29 10 -10 -14 -13 -14 -25 3 -13
18 -36 18 -25 -1 3 -5 -1 -6 -9 -3 -9 3 -13 11 -10 16 4 6 -2 5 -14 -1 -25
-14 -43 -14 -22 -1 13 8 12 10 -5 11 -26 2 -27 2 -47 -6 -11 -4 -18 -3 -18 5
0 6 5 8 10 5 6 -3 10 -2 10 4 0 13 -68 7 -83 -8 -8 -8 -16 -6 -29 6 -18 16
-18 16 -12 -3 5 -15 4 -16 -6 -7 -8 7 -22 8 -40 3 -20 -6 -32 -4 -44 9 -16 15
-17 15 -10 -2 5 -15 3 -16 -19 -8 -14 5 -28 7 -31 4 -3 -4 -6 0 -6 8 0 12 -2
11 -10 -1 -9 -13 -12 -12 -25 4 -8 11 -15 14 -15 7 0 -7 -5 -9 -12 -5 -7 4 -8
3 -4 -4 4 -7 2 -12 -3 -12 -6 0 -11 4 -11 9 0 5 -7 12 -16 15 -14 5 -15 4 -5
-8 10 -12 9 -14 -8 -9 -12 3 -19 8 -17 12 4 6 -32 7 -59 1 -19 -4 -36 0 -31 8
3 5 -1 9 -9 9 -8 0 -12 -4 -9 -9 7 -12 -10 -10 -22 2 -8 8 -16 4 -27 -12z
m-504 -182 c4 -10 1 -13 -8 -9 -8 3 -12 9 -9 14 7 12 11 11 17 -5z m-116 -61
c0 -8 -4 -15 -9 -15 -10 0 -11 14 -1 23 9 10 10 9 10 -8z m1971 -20 c-3 -3 -9
2 -12 12 -6 14 -5 15 5 6 7 -7 10 -15 7 -18z m-2474 -523 c3 -5 -1 -9 -9 -9
-8 0 -12 4 -9 9 3 4 7 8 9 8 2 0 6 -4 9 -8z m-27 -874 c-3 -8 -6 -5 -6 6 -1
11 2 17 5 13 3 -3 4 -12 1 -19z m3216 -63 c-3 -9 -8 -14 -10 -11 -3 3 -2 9 2
15 9 16 15 13 8 -4z m-2483 -2175 c0 -5 -5 -10 -11 -10 -5 0 -7 5 -4 10 3 6 8
10 11 10 2 0 4 -4 4 -10z m-615 -190 c-3 -5 -12 -10 -18 -10 -7 0 -6 4 3 10
19 12 23 12 15 0z m-105 -50 c0 -5 -5 -10 -11 -10 -5 0 -7 5 -4 10 3 6 8 10
11 10 2 0 4 -4 4 -10z m-207 -85 c-3 -9 -8 -14 -10 -11 -3 3 -2 9 2 15 9 16
15 13 8 -4z m-427 -660 c-8 -8 -18 -15 -22 -15 -3 0 -1 7 6 15 7 8 17 15 22
15 5 0 3 -7 -6 -15z"/>
<path d="M780 4020 c-9 -6 -10 -10 -3 -10 6 0 15 5 18 10 8 12 4 12 -15 0z"/>
<path d="M700 3780 c-9 -6 -10 -10 -3 -10 6 0 15 5 18 10 8 12 4 12 -15 0z"/>
<path d="M676 3481 c-4 -5 -2 -12 3 -15 5 -4 12 -2 15 3 4 5 2 12 -3 15 -5 4
-12 2 -15 -3z"/>
<path d="M1150 2456 c0 -2 7 -7 16 -10 8 -3 12 -2 9 4 -6 10 -25 14 -25 6z"/>
<path d="M3714 2418 l-19 -23 25 20 c14 11 27 21 29 22 2 2 0 3 -6 3 -5 0 -18
-10 -29 -22z"/>
<path d="M3910 1806 c0 -2 7 -9 15 -16 13 -11 14 -10 9 4 -5 14 -24 23 -24 12z"/>
<path d="M1556 1782 c-3 -5 1 -9 9 -9 8 0 12 4 9 9 -3 4 -7 8 -9 8 -2 0 -6 -4
-9 -8z"/>
<path d="M1795 1590 c10 -11 20 -20 23 -20 3 0 -3 9 -13 20 -10 11 -20 20 -23
20 -3 0 3 -9 13 -20z"/>
<path d="M4271 1483 c-1 -17 16 -25 25 -12 4 7 3 9 -4 5 -5 -3 -13 0 -15 6 -4
9 -6 10 -6 1z"/>
<path d="M4635 1241 c-3 -5 -2 -12 3 -15 5 -3 9 1 9 9 0 17 -3 19 -12 6z"/>
<path d="M5026 1078 c3 -5 10 -6 15 -3 13 9 11 12 -6 12 -8 0 -12 -4 -9 -9z"/>
<path d="M1665 1070 c-3 -6 1 -7 9 -4 18 7 21 14 7 14 -6 0 -13 -4 -16 -10z"/>
<path d="M1170 929 c0 -5 5 -7 10 -4 6 3 10 8 10 11 0 2 -4 4 -10 4 -5 0 -10
-5 -10 -11z"/>
<path d="M1036 888 c3 -5 10 -6 15 -3 13 9 11 12 -6 12 -8 0 -12 -4 -9 -9z"/>
</g>
</svg>
